<mxfile host="app.diagrams.net" modified="2022-05-19T02:35:07.341Z" agent="5.0 (Windows NT 10.0; Win64; x64) AppleWebKit/537.36 (KHTML, like Gecko) Chrome/97.0.4692.71 Safari/537.36" etag="10C7ApP6yea5hNZu7LTB" version="17.4.2" type="github">
  <diagram id="138GLmA1xgyAAFsX5XPE" name="第 1 页">
    <mxGraphModel dx="4543" dy="1122" grid="1" gridSize="10" guides="1" tooltips="1" connect="1" arrows="1" fold="1" page="1" pageScale="1" pageWidth="827" pageHeight="1169" math="0" shadow="0">
      <root>
        <mxCell id="0" />
        <mxCell id="1" parent="0" />
        <mxCell id="6Lu-BEhj6P7lMjApayFk-1" value="" style="rounded=1;whiteSpace=wrap;html=1;" vertex="1" parent="1">
          <mxGeometry x="210" y="210" width="510" height="60" as="geometry" />
        </mxCell>
        <mxCell id="6Lu-BEhj6P7lMjApayFk-2" value="" style="rounded=1;whiteSpace=wrap;html=1;" vertex="1" parent="1">
          <mxGeometry x="210" y="310" width="510" height="60" as="geometry" />
        </mxCell>
        <mxCell id="6Lu-BEhj6P7lMjApayFk-3" value="" style="rounded=1;whiteSpace=wrap;html=1;" vertex="1" parent="1">
          <mxGeometry x="210" y="430" width="510" height="60" as="geometry" />
        </mxCell>
        <mxCell id="6Lu-BEhj6P7lMjApayFk-4" value="" style="rounded=1;whiteSpace=wrap;html=1;" vertex="1" parent="1">
          <mxGeometry x="210" y="540" width="510" height="60" as="geometry" />
        </mxCell>
        <mxCell id="6Lu-BEhj6P7lMjApayFk-5" value="" style="rounded=1;whiteSpace=wrap;html=1;rotation=90;" vertex="1" parent="1">
          <mxGeometry x="625" y="375" width="390" height="60" as="geometry" />
        </mxCell>
        <mxCell id="6Lu-BEhj6P7lMjApayFk-6" value="" style="shape=partialRectangle;whiteSpace=wrap;html=1;top=0;bottom=0;fillColor=none;" vertex="1" parent="1">
          <mxGeometry x="-2310" y="740" width="120" height="60" as="geometry" />
        </mxCell>
        <mxCell id="6Lu-BEhj6P7lMjApayFk-7" value="" style="shape=partialRectangle;whiteSpace=wrap;html=1;right=0;top=0;bottom=0;fillColor=none;routingCenterX=-0.5;" vertex="1" parent="1">
          <mxGeometry x="-1080" y="640" width="120" height="60" as="geometry" />
        </mxCell>
        <mxCell id="6Lu-BEhj6P7lMjApayFk-8" value="" style="shape=partialRectangle;whiteSpace=wrap;html=1;right=0;top=0;bottom=0;fillColor=none;routingCenterX=-0.5;" vertex="1" parent="1">
          <mxGeometry x="300" y="210" width="120" height="60" as="geometry" />
        </mxCell>
        <mxCell id="6Lu-BEhj6P7lMjApayFk-10" value="展示层" style="text;html=1;strokeColor=none;fillColor=none;align=center;verticalAlign=middle;whiteSpace=wrap;rounded=0;fontSize=19;" vertex="1" parent="1">
          <mxGeometry x="230" y="225" width="60" height="30" as="geometry" />
        </mxCell>
      </root>
    </mxGraphModel>
  </diagram>
</mxfile>
